<?xml version="1.0" standalone="no"?>
<!DOCTYPE svg PUBLIC "-//W3C//DTD SVG 20010904//EN"
 "http://www.w3.org/TR/2001/REC-SVG-20010904/DTD/svg10.dtd">
<svg version="1.0" xmlns="http://www.w3.org/2000/svg"
 width="346.000000pt" height="346.000000pt" viewBox="0 0 346.000000 346.000000"
 preserveAspectRatio="xMidYMid meet">
<metadata>
Created by potrace 1.14, written by Peter Selinger 2001-2017
</metadata>
<g transform="translate(0.000000,346.000000) scale(0.100000,-0.100000)"
fill="#000000" stroke="none">
<path d="M1945 3416 c-22 -8 -85 -17 -140 -20 -174 -11 -249 -22 -299 -44 -42
-19 -78 -44 -230 -161 -70 -54 -167 -227 -151 -269 3 -8 -1 -22 -10 -31 -90
-95 -107 -148 -113 -343 -4 -142 -3 -161 14 -185 26 -38 26 -213 0 -242 -9 -9
-16 -23 -16 -30 0 -7 -5 -9 -11 -5 -9 5 -10 -2 -6 -22 4 -16 11 -119 17 -229
14 -272 39 -387 111 -522 52 -95 51 -109 -12 -158 -69 -55 -158 -161 -232
-277 -73 -115 -41 -100 -389 -188 -231 -58 -304 -81 -421 -133 l-57 -26 0
-265 0 -266 756 0 c416 0 754 3 752 8 -45 100 -109 211 -148 258 -91 109 -110
141 -120 201 -21 122 -22 125 -11 118 6 -3 11 -21 12 -38 1 -31 1 -31 9 -7 6
19 8 20 9 6 1 -14 4 -16 14 -7 15 12 37 -3 37 -27 0 -10 8 -13 27 -9 18 3 31
0 40 -11 8 -11 12 -12 13 -4 0 14 50 17 50 3 0 -27 96 -12 114 18 6 10 119 1
126 -9 10 -15 58 2 70 25 7 12 23 29 36 36 28 14 29 27 10 74 -14 34 -14 35 7
36 17 1 15 3 -8 9 -16 4 -24 8 -17 9 7 0 11 5 8 10 -3 4 29 19 72 31 42 13 84
26 92 30 8 4 34 16 57 26 23 11 37 21 32 25 -5 3 10 16 33 29 80 44 188 141
188 168 0 13 -5 11 -20 -8 -10 -14 -22 -21 -26 -17 -4 4 -3 7 3 7 5 0 22 24
37 53 15 28 38 70 52 92 l24 40 -6 -50 c-6 -51 -19 -104 -34 -140 -4 -11 -18
-47 -30 -80 -38 -103 -114 -250 -144 -281 -9 -8 -16 -30 -16 -48 0 -22 -9 -43
-26 -61 -33 -36 -45 -68 -39 -110 4 -37 12 -28 -134 -160 -31 -28 -81 -67
-111 -87 -30 -20 -80 -60 -110 -87 -30 -28 -58 -51 -62 -51 -5 0 -8 -4 -8 -10
0 -7 300 -10 879 -10 823 0 879 1 877 17 -2 25 32 28 53 4 37 -43 41 -28 41
145 0 119 -3 169 -12 177 -57 55 -139 103 -213 127 -22 7 -76 30 -119 51 -44
22 -84 39 -90 38 -6 0 0 -5 13 -10 28 -11 22 -24 -8 -14 -11 3 -23 15 -26 26
-8 24 -139 112 -193 129 -20 7 -41 16 -47 21 -5 5 -24 9 -41 9 -18 0 -39 6
-46 13 -7 8 -19 12 -27 9 -8 -3 -11 0 -8 5 4 6 -5 19 -19 29 -30 22 -81 94
-155 219 -29 50 -55 92 -58 95 -13 11 -61 109 -61 124 0 8 18 50 39 93 39 78
81 190 81 216 0 8 9 26 20 40 21 26 27 57 11 57 -5 0 -20 -20 -32 -45 -14 -28
-28 -44 -36 -41 -7 3 -13 0 -13 -7 0 -8 -3 -8 -9 2 -12 19 -24 -3 -16 -29 4
-11 2 -20 -4 -20 -6 0 -11 -14 -11 -31 0 -26 -3 -31 -20 -26 -12 3 -28 -2 -37
-11 -15 -15 -16 -15 -11 -1 3 9 3 22 -2 29 -6 9 -10 7 -15 -9 -3 -12 -10 -19
-15 -16 -4 3 -11 -13 -15 -36 -4 -22 -10 -38 -13 -35 -3 4 -16 -1 -29 -9 -17
-11 -28 -13 -42 -6 -24 13 -32 4 -24 -28 6 -25 6 -25 -12 -8 -20 21 -34 15
-16 -7 8 -9 8 -16 2 -20 -5 -4 -12 -2 -16 4 -9 14 -28 12 -22 -2 2 -7 0 -21
-5 -30 -5 -12 -5 -18 2 -18 5 0 10 -4 10 -9 0 -5 -9 -7 -20 -4 -14 4 -21 -1
-26 -21 -3 -14 -12 -26 -20 -26 -8 0 -14 -8 -14 -17 0 -15 -2 -16 -10 -3 -8
13 -10 12 -10 -3 0 -9 -3 -16 -7 -16 -24 4 -45 -3 -63 -21 -19 -19 -19 -19
-33 1 -12 17 -15 17 -20 5 -4 -10 -13 -13 -23 -9 -13 5 -16 2 -12 -9 4 -9 2
-20 -3 -25 -7 -7 -23 3 -48 29 -40 40 -65 43 -76 7 -7 -22 -35 -26 -35 -4 0
14 -17 20 -47 16 -8 -1 -13 9 -13 24 0 16 -4 24 -11 19 -6 -3 -8 -16 -5 -28 4
-18 3 -19 -7 -6 -7 8 -21 17 -32 18 -28 5 -83 53 -91 80 -5 17 -12 22 -25 19
-23 -6 -24 1 -2 25 9 11 11 18 5 18 -7 0 -12 11 -12 25 0 18 -7 26 -25 31 -27
7 -29 12 -16 33 20 31 75 18 118 -28 10 -11 47 -35 83 -54 54 -29 74 -34 118
-32 29 1 55 5 59 8 3 4 17 7 29 7 13 0 25 4 29 9 3 5 18 12 34 16 30 6 58 31
48 41 -3 3 -52 8 -109 10 -57 2 -120 6 -140 9 -47 6 -89 25 -82 36 3 5 14 5
24 -1 10 -5 23 -10 29 -10 20 0 11 37 -11 53 -34 24 -7 37 72 35 36 -1 108 2
160 7 82 7 97 5 109 -9 7 -9 24 -16 38 -16 13 0 38 -8 56 -17 18 -9 36 -17 41
-18 5 0 14 -9 20 -20 21 -36 33 -46 40 -30 3 8 1 17 -4 20 -7 4 -6 13 0 26 7
13 7 25 0 38 -14 27 -13 64 2 55 12 -7 5 8 -15 34 -8 10 -12 10 -18 0 -6 -9
-15 -4 -34 17 -19 21 -29 26 -32 17 -4 -10 -10 -10 -29 3 -14 9 -24 11 -24 5
0 -6 -5 -8 -11 -5 -7 5 -8 -5 -3 -29 l6 -37 -53 22 c-92 37 -126 42 -179 24
-44 -15 -51 -14 -89 1 -29 11 -55 14 -84 10 l-42 -6 30 20 c17 11 35 20 41 20
27 0 64 27 64 47 0 34 10 52 26 46 8 -3 14 -13 14 -23 0 -23 16 -35 26 -19 5
8 9 8 14 -2 5 -7 18 -14 29 -16 16 -2 21 2 21 21 0 14 -5 28 -10 31 -6 4 -8
15 -5 26 5 15 1 19 -18 19 -21 0 -23 4 -19 26 4 21 9 25 36 23 39 -3 104 10
112 23 3 5 0 15 -6 23 -26 31 -104 11 -135 -35 -11 -16 -22 -25 -25 -21 -3 4
-26 15 -51 23 -26 9 -56 24 -68 34 -27 24 -84 20 -122 -9 -32 -23 -31 -52 1
-94 31 -40 16 -66 -64 -107 -40 -20 -79 -34 -88 -31 -9 4 -19 2 -22 -4 -5 -7
-15 -7 -31 -1 -16 6 -25 6 -25 0 0 -21 -39 -9 -63 20 -14 17 -30 30 -35 30 -5
0 -15 7 -23 16 -7 9 -31 24 -53 35 -60 28 -71 59 -71 209 0 69 -4 131 -9 139
-6 10 -6 16 2 19 7 2 12 15 12 28 0 13 5 24 11 24 6 0 9 6 6 14 -3 8 1 20 9
27 16 13 51 1 90 -34 24 -20 130 -39 154 -27 8 4 42 13 74 20 82 17 103 38 33
33 l-52 -4 31 15 c19 8 34 24 38 40 8 31 17 33 41 6 18 -20 17 -20 -10 -20
-34 0 -25 -13 13 -18 15 -2 30 -8 33 -14 10 -16 56 -1 83 29 13 14 30 47 36
72 7 25 16 58 22 73 18 48 -16 138 -51 138 -6 0 -17 14 -26 30 -17 32 -51 41
-61 15 -5 -12 -9 -12 -27 -1 -34 22 -182 31 -210 14 -12 -8 -38 -14 -57 -13
-42 0 -52 25 -23 58 31 35 50 70 57 105 4 17 12 32 17 32 5 0 9 6 9 13 0 8 10
19 23 25 22 10 22 11 -5 11 -25 1 -27 4 -22 31 4 17 1 36 -5 44 -33 39 95 185
207 237 64 30 73 31 197 31 85 0 153 -6 196 -16 37 -9 102 -21 145 -26 83 -12
164 -37 164 -51 0 -5 5 -9 11 -9 18 0 104 -93 118 -128 7 -18 17 -32 22 -32 5
0 9 -6 9 -13 0 -8 22 -37 50 -66 45 -47 51 -58 56 -109 4 -32 18 -76 31 -99
22 -37 25 -60 33 -210 5 -92 10 -170 11 -173 0 -3 7 27 14 65 7 39 23 121 34
183 18 96 20 123 11 170 -6 32 -15 96 -20 143 -6 69 -15 100 -44 155 -51 99
-84 174 -98 229 -9 32 -23 55 -41 69 -16 12 -35 34 -43 49 -8 15 -26 32 -39
37 -14 5 -25 16 -25 23 0 17 -32 47 -51 47 -18 0 -143 64 -176 90 -30 23 -43
24 -98 6z m-790 -916 c-3 -5 -11 -10 -16 -10 -6 0 -7 5 -4 10 3 6 11 10 16 10
6 0 7 -4 4 -10z m236 -198 c33 -28 24 -45 -18 -38 -21 3 -60 6 -86 6 -52 0
-56 14 -8 25 16 3 35 13 42 21 13 16 41 11 70 -14z m-101 -114 c0 -9 12 -26
26 -37 25 -20 25 -21 6 -21 -12 0 -38 14 -58 32 l-36 32 23 18 c24 20 39 11
39 -24z m-320 -1244 c0 -14 -3 -14 -15 -4 -8 7 -15 14 -15 16 0 2 7 4 15 4 8
0 15 -7 15 -16z m1454 -39 c17 -13 17 -15 3 -20 -17 -7 -57 11 -57 25 0 15 32
11 54 -5z m351 -294 c3 -5 1 -12 -5 -16 -5 -3 -10 1 -10 9 0 18 6 21 15 7z
m-1590 -41 c-4 -12 -2 -20 5 -20 6 0 8 -5 4 -11 -3 -6 -2 -14 3 -18 6 -3 13
-23 17 -44 9 -50 -9 -41 -31 16 -16 40 -17 41 -24 17 -5 -19 -7 -14 -7 20 -1
34 2 40 8 25 8 -20 9 -20 9 1 1 19 9 34 18 34 3 0 1 -9 -2 -20z m1085 -5 c0
-8 -7 -15 -15 -15 -26 0 -18 20 13 29 1 1 2 -6 2 -14z m-2137 -36 c-6 -6 -19
-9 -29 -6 -17 3 -16 5 6 14 28 12 39 8 23 -8z m2569 -24 c16 -35 2 -43 -27
-15 -30 28 -32 40 -5 40 12 0 25 -10 32 -25z m163 17 c12 -8 19 -35 8 -29 -5
2 -16 7 -26 10 -10 4 -15 11 -12 17 7 12 16 12 30 2z m235 -13 c0 -5 -8 -6
-17 -4 -10 3 -4 -1 14 -10 38 -17 52 -35 21 -27 -17 4 -20 2 -15 -11 8 -20 3
-21 -26 -5 -21 11 -21 11 -2 18 19 7 18 8 -7 20 -20 10 -24 15 -15 25 12 13
47 9 47 -6z m-657 -6 c-7 -2 -21 -2 -30 0 -10 3 -4 5 12 5 17 0 24 -2 18 -5z
m-1314 -128 c-24 -82 -37 -96 -18 -20 10 41 10 51 -5 77 -21 34 -12 53 10 23
14 -19 15 -19 21 5 6 19 8 21 11 7 2 -9 -6 -51 -19 -92z m2081 80 c-7 -8 -19
-15 -26 -15 -8 0 -14 7 -14 15 0 10 10 15 26 15 22 0 25 -2 14 -15z m-65 -16
c11 -17 -1 -21 -15 -4 -8 9 -8 15 -2 15 6 0 14 -5 17 -11z m15 -39 c0 -5 -2
-10 -4 -10 -3 0 -8 5 -11 10 -3 6 -1 10 4 10 6 0 11 -4 11 -10z m210 -11 c0
-5 -12 -8 -27 -8 -24 2 -25 2 -5 6 13 3 19 9 16 15 -4 7 -2 8 4 4 7 -4 12 -11
12 -17z m-3036 -50 c-7 -12 -54 -12 -54 1 0 16 34 29 47 18 7 -6 10 -14 7 -19z
m2481 -7 c-3 -3 -11 0 -18 7 -9 10 -8 11 6 5 10 -3 15 -9 12 -12z m-1719 -69
c-10 -10 -19 5 -10 18 6 11 8 11 12 0 2 -7 1 -15 -2 -18z m2034 -28 c21 -25
-1 -36 -37 -18 -18 8 -33 19 -33 24 0 15 57 10 70 -6z m-863 -81 c18 -18 16
-34 -5 -34 -20 0 -42 18 -42 35 0 16 32 15 47 -1z m-462 -64 c-3 -5 -13 -10
-21 -10 -8 0 -12 5 -9 10 3 6 13 10 21 10 8 0 12 -4 9 -10z m-1263 -15 c2 -13
-49 -31 -59 -21 -10 10 27 38 45 34 7 -2 14 -7 14 -13z m760 -10 c-5 -27 -32
-34 -51 -12 -14 17 4 37 35 37 17 0 20 -5 16 -25z"/>
<path d="M1850 2785 c0 -8 9 -15 19 -15 26 0 35 16 15 24 -25 10 -34 7 -34 -9z"/>
<path d="M2025 2490 c-21 -4 -56 -5 -76 -3 -21 3 -49 3 -62 -1 -57 -14 -84
-124 -40 -159 13 -10 23 -29 23 -43 0 -17 6 -24 19 -24 22 0 35 -25 32 -58 -2
-20 1 -23 19 -17 15 5 20 4 16 -4 -5 -7 5 -11 31 -10 21 1 30 3 21 6 -22 6
-23 27 -2 47 24 24 32 20 39 -23 7 -41 21 -51 77 -51 31 0 68 41 68 76 0 13 2
24 5 24 17 0 65 -32 65 -44 0 -7 12 -13 30 -13 17 0 30 3 30 7 0 26 -101 75
-175 85 -27 3 -63 9 -78 12 -27 5 -28 6 -11 24 9 10 23 19 31 19 8 0 11 5 8
10 -4 6 12 10 42 10 36 0 44 -3 33 -11 -11 -8 -6 -9 20 -4 22 4 30 3 22 -3
-10 -7 -6 -12 17 -22 17 -6 42 -27 55 -45 16 -20 33 -32 43 -30 10 2 21 4 26
4 15 2 6 23 -19 46 -15 14 -23 25 -18 25 5 1 -7 9 -26 20 l-35 19 32 1 c17 0
35 5 38 10 3 6 15 10 26 10 10 0 19 -4 19 -10 0 -5 7 -10 15 -10 8 0 15 6 15
14 0 8 5 16 12 18 7 3 -7 22 -31 46 -36 35 -48 41 -79 38 -20 -2 -41 -1 -46 2
-26 15 -178 23 -231 12z"/>
<path d="M2060 2131 c0 -10 60 -24 68 -16 8 8 0 12 -35 18 -18 4 -33 3 -33 -2z"/>
<path d="M2521 2124 c0 -11 3 -14 6 -6 3 7 2 16 -1 19 -3 4 -6 -2 -5 -13z"/>
<path d="M2592 2075 c-22 -21 -22 -24 -9 -56 l14 -34 12 53 c7 29 12 55 10 56
-2 2 -14 -7 -27 -19z"/>
<path d="M2533 1875 c0 -22 2 -30 4 -17 2 12 2 30 0 40 -3 9 -5 -1 -4 -23z"/>
<path d="M2516 1762 c-4 -37 -9 -83 -12 -102 -5 -25 -3 -32 4 -25 6 6 14 42
17 80 3 39 8 77 11 87 3 9 1 19 -4 22 -5 3 -12 -25 -16 -62z"/>
<path d="M1090 1710 c0 -5 5 -10 10 -10 6 0 10 5 10 10 0 6 -4 10 -10 10 -5 0
-10 -4 -10 -10z"/>
<path d="M1822 1689 c2 -7 10 -15 17 -17 8 -3 12 1 9 9 -2 7 -10 15 -17 17 -8
3 -12 -1 -9 -9z"/>
<path d="M1855 1650 c-4 -6 -12 -7 -18 -3 -8 5 -8 2 0 -9 7 -8 9 -18 5 -23 -4
-4 0 -6 8 -3 8 3 14 13 12 23 -2 10 1 14 7 10 6 -3 11 -17 11 -31 0 -25 18
-32 37 -13 17 17 43 3 43 -22 0 -12 3 -20 6 -16 16 16 -8 54 -48 75 -49 25
-54 26 -63 12z"/>
<path d="M2350 1491 c0 -6 5 -13 10 -16 6 -3 10 1 10 9 0 9 -4 16 -10 16 -5 0
-10 -4 -10 -9z"/>
<path d="M2120 1340 c0 -5 5 -10 10 -10 6 0 10 5 10 10 0 6 -4 10 -10 10 -5 0
-10 -4 -10 -10z"/>
<path d="M1660 1130 c0 -5 5 -10 10 -10 6 0 10 5 10 10 0 6 -4 10 -10 10 -5 0
-10 -4 -10 -10z"/>
<path d="M2070 820 c-9 -6 -10 -10 -3 -10 6 0 15 5 18 10 8 12 4 12 -15 0z"/>
</g>
</svg>
