<svg xmlns="http://www.w3.org/2000/svg" version="1.1" xmlns:xlink="http://www.w3.org/1999/xlink" width="512" height="512" x="0" y="0" viewBox="0 0 24 24" style="enable-background:new 0 0 512 512" xml:space="preserve" class=""><g><g fill="#3b82f6"><path d="M14.243 3.03a1 1 0 0 1 .727 1.213l-4 16a1 1 0 0 1-1.94-.486l4-16a1 1 0 0 1 1.213-.727z" opacity="1" fill="#3b82f630" data-original="#3b82f630" class=""></path><path d="M1.293 12.707a1 1 0 0 1 0-1.414l4-4a1 1 0 1 1 1.414 1.414L3.414 12l3.293 3.293a1 1 0 1 1-1.414 1.414zm17.414-5.414a1 1 0 1 0-1.414 1.414L20.586 12l-3.293 3.293a1 1 0 1 0 1.414 1.414l4-4a1 1 0 0 0 0-1.414l-4-4z" fill="#3b82f6" opacity="1" data-original="#3b82f6" class=""></path></g></g></svg>