<svg xmlns="http://www.w3.org/2000/svg" version="1.1" xmlns:xlink="http://www.w3.org/1999/xlink" width="512" height="512" x="0" y="0" viewBox="0 0 16.933 16.933" style="enable-background:new 0 0 512 512" xml:space="preserve" class=""><g><path fill="#2fa9da" d="M5.032 11.906s.03.188-.035.44-.227.59-.664.94c-.068.056-.06.134-.06.207h4.154c0-.073.01-.151-.059-.206-.437-.35-.6-.691-.666-.942-.065-.25-.035-.44-.035-.44z" opacity="1" data-original="#2fa9da"></path><path fill="#33b9ef" d="M1.323 3.175a.798.798 0 0 0-.795.793v7.409c0 .435.36.793.795.793h10.055a.797.797 0 0 0 .793-.793V3.968a.797.797 0 0 0-.793-.793z" opacity="1" data-original="#33b9ef" class=""></path><path fill="#dbe9ee" d="M1.323 3.705h10.055c.151 0 .264.112.264.263v5.557H1.058V3.968c0-.15.114-.263.265-.263zM6.085 11.113h.53c.352 0 .352-.53 0-.53h-.543c-.365.018-.34.547.013.53z" opacity="1" data-original="#dbe9ee" class=""></path><path fill="#33b9ef" d="M3.968 13.228a.265.265 0 1 0 0 .53h4.764a.265.265 0 1 0 0-.53z" opacity="1" data-original="#33b9ef" class=""></path><path fill="#c8d4d9" d="M1.849 6.875a.265.265 0 0 0-.262.27V8.73a.265.265 0 1 0 .53 0V7.144a.265.265 0 0 0-.268-.27zM1.849 5.287a.265.265 0 0 0-.262.27v.529a.265.265 0 1 0 .53 0v-.53a.265.265 0 0 0-.268-.27z" opacity="1" data-original="#c8d4d9"></path><path fill="#ff6b6b" d="M8.731 4.761a.8.8 0 0 0-.795.795v7.409c0 .435.36.792.795.792h4.762a.798.798 0 0 0 .795-.792V5.556a.8.8 0 0 0-.795-.795z" opacity="1" data-original="#ff6b6b"></path><path fill="#dbe9ee" d="M8.466 5.82h5.293v5.821H8.466z" opacity="1" data-original="#dbe9ee" class=""></path><path fill="#33658a" d="M13.493 7.937a.797.797 0 0 0-.793.793v4.235c0 .435.358.792.793.792h2.117a.796.796 0 0 0 .793-.792V8.73a.796.796 0 0 0-.793-.793z" opacity="1" data-original="#33658a"></path><path fill="#dbe9ee" d="M13.23 8.996h2.644v3.703H13.23zM10.849 12.17a.265.265 0 1 0 0 .529h.529a.265.265 0 1 0 0-.53z" opacity="1" data-original="#dbe9ee" class=""></path><g fill="#c8d4d9"><path d="M9.257 8.463a.265.265 0 0 0-.262.267v1.588a.265.265 0 1 0 .53 0V8.73a.265.265 0 0 0-.268-.267zM9.257 6.875a.265.265 0 0 0-.262.27v.528a.265.265 0 1 0 .53 0v-.529a.265.265 0 0 0-.268-.27z" fill="#c8d4d9" opacity="1" data-original="#c8d4d9"></path></g></g></svg>