<svg xmlns="http://www.w3.org/2000/svg" version="1.1" xmlns:xlink="http://www.w3.org/1999/xlink" width="512" height="512" x="0" y="0" viewBox="0 0 64 64" style="enable-background:new 0 0 512 512" xml:space="preserve" class=""><g><linearGradient id="a" x1="5" x2="59" y1="32" y2="32" gradientUnits="userSpaceOnUse"><stop offset="0" stop-color="#2484c6"></stop><stop offset=".22" stop-color="#247cc1"></stop><stop offset=".57" stop-color="#2365b2"></stop><stop offset="1" stop-color="#21409a"></stop></linearGradient><path fill="url(#a)" d="M9.67 26H10v-5.5h-.33a2.75 2.75 0 0 0-2.75 2.74A2.75 2.75 0 0 0 9.67 26zm10.75-14.36a2.91 2.91 0 0 1-.42 1.59l-.51-.47a.51.51 0 0 0-.42-.19.59.59 0 0 0-.51.55.33.33 0 0 0 .12.25l.51.47a2.18 2.18 0 0 1-.6.08c-1.39 0-1.8-1-1.8-2.28s.6-2.13 1.8-2.13 1.83.88 1.83 2.13zM28.63 5H8.38A3.38 3.38 0 0 0 5 8.38V23a4.49 4.49 0 0 1 4.5-4.5h19.13A3.37 3.37 0 0 0 32 15.13V8.38A3.37 3.37 0 0 0 28.63 5zM11.89 15.11c-1.87 0-2.71-.94-2.71-1.64a.59.59 0 0 1 .62-.61c.8 0 .59 1.17 2.09 1.17.76 0 1.19-.42 1.19-.86 0-.26-.13-.54-.63-.67l-1.67-.42C9.44 11.73 9.2 11 9.2 10.3c0-1.44 1.33-2 2.58-2s2.51.65 2.51 1.51a.61.61 0 0 1-.67.59c-.69 0-.56-1-1.94-1-.68 0-1.06.31-1.06.76s.54.6 1 .7l1.23.28c1.35.31 1.69 1.11 1.69 1.87.01 1.23-.87 2.1-2.65 2.1zm9.68-.44a.3.3 0 0 1 .12.25.58.58 0 0 1-.5.55.53.53 0 0 1-.43-.19l-.56-.53a3.38 3.38 0 0 1-1.58.36c-2.32 0-3.28-1.51-3.28-3.47a3.09 3.09 0 0 1 3.28-3.32 3.08 3.08 0 0 1 3.28 3.32 3.61 3.61 0 0 1-.89 2.5zm5.35.29h-3.08c-.52 0-.86-.21-.86-.87v-5a.69.69 0 0 1 .73-.74.7.7 0 0 1 .74.74v4.61h2.47c.42 0 .76.22.76.63s-.34.67-.76.67zM35 33.86a13.92 13.92 0 0 0 8-2.17v3.1c0 .79-.81 1.66-2.21 2.34l-.25.11-.15.06-.16.06a12.15 12.15 0 0 1-3.16.79 7.93 7.93 0 0 1-1 .1 15.86 15.86 0 0 1-2.18 0 8.19 8.19 0 0 1-1-.11 12.23 12.23 0 0 1-3.14-.79l-.15-.05-.12-.06-.3-.14c-1.37-.65-2.18-1.52-2.18-2.31v-3.1a13.92 13.92 0 0 0 8 2.17zm-8-5.5c0-1.66 3.29-3.5 8-3.5s8 1.84 8 3.5-3.29 3.5-8 3.5-8-1.86-8-3.5zM41.71 38.9a8.77 8.77 0 0 0 1.29-.76v3.07c0 .8-.81 1.67-2.21 2.34a1.92 1.92 0 0 1-.25.12l-.15.06-.16.06a12.15 12.15 0 0 1-3.16.79c-.32.05-.65.07-1 .1a15.86 15.86 0 0 1-2.18 0c-.33 0-.66 0-1-.11a12.23 12.23 0 0 1-3.14-.79l-.15-.05-.12-.06-.3-.14C27.81 42.88 27 42 27 41.21v-3.07a8.62 8.62 0 0 0 1.24.73c.14.08.28.14.43.21l.32.12a13.23 13.23 0 0 0 3.58.92 9.54 9.54 0 0 0 1.21.12h2.45a7.67 7.67 0 0 0 1.14-.12A13.44 13.44 0 0 0 41 39.2l.3-.12zM43 44.56v3.08c0 .88-.93 1.8-2.53 2.49H40.23a11.8 11.8 0 0 1-3.15.78c-.33.06-.66.08-1 .11a15.86 15.86 0 0 1-2.18 0c-.33 0-.66 0-1-.11a11.83 11.83 0 0 1-3.14-.8h-.1l-.15-.06c-1.58-.61-2.51-1.53-2.51-2.41v-3.07a8.62 8.62 0 0 0 1.24.73c.14.08.28.14.43.21l.32.12a13.6 13.6 0 0 0 3.58.91 8 8 0 0 0 1.21.13h2.45a7.67 7.67 0 0 0 1.14-.12 14.21 14.21 0 0 0 3.63-.92 2.08 2.08 0 0 0 .3-.13l.38-.17a8 8 0 0 0 1.32-.77zM51 11H34v4.12a5.38 5.38 0 0 1-5.38 5.38H11V51a8 8 0 0 0 8 8h32a8 8 0 0 0 8-8V19a8 8 0 0 0-8-8zm-6 17.36v19.28c0 1.73-1.35 3.3-3.69 4.3a1.86 1.86 0 0 1-.27.11 14.09 14.09 0 0 1-3.67.93c-.34.06-.73.09-1.14.12s-.82 0-1.23 0h-1.22a11.3 11.3 0 0 1-1.2-.13 13.68 13.68 0 0 1-3.58-.91 2.83 2.83 0 0 1-.35-.14c-2.29-1-3.64-2.55-3.64-4.28V28.36c0-3.09 4.39-5.5 10-5.5s10 2.41 10 5.5z" data-name="Zoom Out" opacity="1" data-original="url(#a)" class=""></path></g></svg>